PathFileType        4      (X/Y/Z)      Static.trc         
DataRate	CameraRate	NumFrames	NumMarkers	Units	OrigDataRate	OrigDataStartFrame	OrigNumFrames
100.0	100.0	11	33	mm	100.0	118	156
Frame#	Time	T2			T10			MANU			LASI			RASI			SACR			LTHI			LKAX			LKD1			LKD2			LKNE			LTIB			LANK			LMED			LHEE			LTOE			RTHI			RKAX			RKD1			RKD2			RKNE			RTIB			RANK			RMED			RHEE			RTOE			RHJC			LHJC			RKJC			LKJC			MASI			RAJC			LAJC			
		X1	Y1	Z1	X2	Y2	Z2	X3	Y3	Z3	X4	Y4	Z4	X5	Y5	Z5	X6	Y6	Z6	X7	Y7	Z7	X8	Y8	Z8	X9	Y9	Z9	X10	Y10	Z10	X11	Y11	Z11	X12	Y12	Z12	X13	Y13	Z13	X14	Y14	Z14	X15	Y15	Z15	X16	Y16	Z16	X17	Y17	Z17	X18	Y18	Z18	X19	Y19	Z19	X20	Y20	Z20	X21	Y21	Z21	X22	Y22	Z22	X23	Y23	Z23	X24	Y24	Z24	X25	Y25	Z25	X26	Y26	Z26	X27	Y27	Z27	X28	Y28	Z28	X29	Y29	Z29	X30	Y30	Z30	X31	Y31	Z31	X32	Y32	Z32	X33	Y33	Z33	
118	1.17	133.37995	1122.37251	-61.28365	109.24545	924.11148	-77.89819	246.55782	1049.48377	-48.38523	304.20102	736.054	-150.01144	272.96796	740.3639	68.3605	167.39269	771.56757	-61.848	308.11426	418.12359	-214.01464	316.40694	354.6832	-277.28968	408.66398	348.24286	-182.64349	310.78404	259.03358	-186.20239	315.12695	352.48329	-183.81583	203.61729	135.71438	-238.24701	156.71878	61.84637	-207.32139	157.42545	49.00918	-133.43546	95.02859	39.57149	-184.98938	268.68281	29.45074	-184.13361	300.93423	432.18134	112.94004	321.06284	361.38081	175.91524	410.13121	357.29202	68.32944	312.90915	265.6629	78.09273	313.92353	361.16201	77.94995	225.68669	144.46102	130.0612	174.14854	53.88118	102.70073	177.8712	56.99535	24.15636	118.64945	37.26482	79.85524	289.01807	29.62479	54.19981	218.37291	676.01595	31.30054	241.05349	672.88622	-127.27511	310.58011	361.05955	32.07173	314.49728	351.40109	-137.83288	288.58449	738.20895	-40.82547	172.37647	47.18649	64.27518	152.82164	47.4365	-171.25715	
119	1.18	133.39319	1122.36579	-61.34267	109.18042	924.10536	-77.97599	246.55509	1049.4694	-48.44092	304.22639	736.04073	-150.02721	272.96974	740.36016	68.35008	167.45633	771.53302	-61.85948	308.12355	418.09145	-214.01675	316.42623	354.65036	-277.28672	408.66729	348.22163	-182.64891	310.79172	259.01364	-186.20428	315.13778	352.45833	-183.82422	203.63073	135.7105	-238.24874	156.729	61.85202	-207.33201	157.4336	49.00873	-133.44487	95.07423	39.57307	-185.03868	268.68508	29.44323	-184.13188	300.9424	432.17164	112.93913	321.05953	361.3687	175.92179	410.13346	357.28694	68.33302	312.90446	265.65726	78.09702	313.92139	361.1569	77.95568	225.70046	144.47254	130.06029	174.15523	53.88805	102.69075	177.87666	56.99693	24.14535	118.63104	37.2613	79.83524	289.01735	29.62956	54.18654	218.39616	675.9993	31.28853	241.09379	672.86266	-127.29042	310.57854	361.05772	32.07741	314.50387	351.37986	-137.84124	288.59806	738.20044	-40.83856	172.38275	47.19088	64.26425	152.83089	47.43974	-171.26722	
120	1.19	133.40703	1122.36228	-61.4056	109.12774	924.09877	-78.04555	246.55502	1049.45349	-48.50113	304.2502	736.03016	-150.04248	272.96302	740.35423	68.33306	167.51407	771.50253	-61.8673	308.13436	418.06243	-214.01817	316.44688	354.62102	-277.28308	408.67214	348.20159	-182.6528	310.80268	258.99826	-186.20552	315.15121	352.43615	-183.83166	203.6484	135.71352	-238.25083	156.738	61.86132	-207.3403	157.45137	49.01828	-133.45836	95.1098	39.57546	-185.08407	268.68979	29.4433	-184.13322	300.94656	432.16937	112.93676	321.05098	361.36114	175.91844	410.13311	357.28767	68.33237	312.91264	265.66875	78.09748	313.92376	361.15618	77.95596	225.70868	144.48849	130.05643	174.16348	53.89646	102.67827	177.88167	57.00322	24.13354	118.62161	37.26732	79.81393	289.01509	29.63729	54.17135	218.41095	675.98448	31.26737	241.13073	672.84448	-127.31013	310.58588	361.0602	32.07732	314.51368	351.36108	-137.84864	288.60661	738.19219	-40.85471	172.38937	47.19836	64.25178	152.84437	47.44993	-171.2782	
121	1.2	133.41889	1122.35762	-61.47364	109.10149	924.0925	-78.1022	246.55571	1049.43739	-48.56356	304.26977	736.02241	-150.05608	272.9479	740.3478	68.31152	167.55984	771.48174	-61.87669	308.1461	418.0363	-214.01669	316.46598	354.59587	-277.27769	408.67727	348.18305	-182.65447	310.81818	258.98895	-186.20544	315.16659	352.4168	-183.83691	203.66789	135.72186	-238.25202	156.74544	61.87246	-207.3472	157.47633	49.03573	-133.47131	95.12608	39.57544	-185.11597	268.696	29.45149	-184.13713	300.94391	432.17559	112.93365	321.03857	361.36159	175.90624	410.12825	357.29411	68.3297	312.93332	265.69787	78.09488	313.93067	361.16091	77.95203	225.70842	144.50629	130.04961	174.17084	53.90481	102.66476	177.88542	57.01298	24.12175	118.62384	37.28278	79.79581	289.01188	29.6464	54.15696	218.41357	675.97481	31.23971	241.15857	672.83384	-127.33221	310.60151	361.06692	32.07276	314.52715	351.34447	-137.85386	288.60884	738.1851	-40.87228	172.39465	47.20748	64.23891	152.86065	47.46505	-171.28825	
122	1.21	133.42905	1122.34954	-61.54711	109.10842	924.08286	-78.14567	246.55549	1049.42096	-48.62516	304.28315	736.01516	-150.06602	272.9271	740.34219	68.28884	167.59107	771.47119	-61.89354	308.16003	418.01226	-214.01125	316.48269	354.57488	-277.27108	408.68175	348.16511	-182.65316	310.83636	258.98239	-186.20199	315.18206	352.39947	-183.83872	203.688	135.73324	-238.25177	156.75162	61.88243	-207.35392	157.50391	49.05517	-133.47959	95.12567	39.57101	-185.13237	268.70165	29.46409	-184.1415	300.93347	432.18816	112.92957	321.02368	361.37061	175.88754	410.11744	357.30312	68.32801	312.96159	265.73859	78.09107	313.94021	361.16904	77.94563	225.69954	144.52282	130.04099	174.17576	53.91098	102.65284	177.88812	57.02365	24.10997	118.63458	37.30211	79.78437	289.00995	29.65479	54.14607	218.40464	675.97125	31.21087	241.17452	672.82908	-127.3523	310.62202	361.07461	32.06556	314.54194	351.32884	-137.85563	288.60512	738.17867	-40.88859	172.39801	47.21592	64.22693	152.87758	47.48058	-171.29591	
123	1.22	133.4398	1122.3394	-61.62456	109.14473	924.06541	-78.18022	246.55506	1049.40408	-48.68523	304.29132	736.00678	-150.07251	272.90666	740.33874	68.2667	167.6091	771.46581	-61.9211	308.17831	417.99045	-214.00322	316.49846	354.55797	-277.26598	408.68577	348.14766	-182.64889	310.85391	258.97442	-186.19415	315.19577	352.38423	-183.83758	203.70931	135.74616	-238.25131	156.75661	61.88859	-207.36075	157.52937	49.0689	-133.48229	95.121	39.56475	-185.13894	268.70603	29.47638	-184.1449	300.91725	432.20367	112.92263	321.00748	361.38635	175.86392	410.10149	357.31146	68.32818	312.99122	265.78234	78.08681	313.95004	361.1776	77.93689	225.68461	144.53528	130.03127	174.17862	53.91305	102.64471	177.89002	57.0323	24.0982	118.64897	37.31749	79.78016	289.01147	29.66031	54.14015	218.39138	675.97203	31.18485	241.18215	672.82627	-127.36771	310.64348	361.0798	32.05599	314.55462	351.31436	-137.8545	288.59899	738.17276	-40.90291	172.39987	47.22128	64.21697	152.89287	47.49119	-171.30083	
124	1.23	133.45415	1122.33195	-61.70324	109.19782	924.04207	-78.21332	246.55731	1049.38833	-48.74635	304.2981	735.99902	-150.07936	272.89417	740.33932	68.24346	167.62028	771.45795	-61.95803	308.20116	417.97222	-213.9964	316.5155	354.54595	-277.2663	408.6907	348.13343	-182.64345	310.86825	258.96422	-186.18389	315.20689	352.37327	-183.83645	203.73317	135.76034	-238.25343	156.7602	61.88969	-207.3666	157.54826	49.07114	-133.48219	95.12453	39.56278	-185.1432	268.71038	29.48591	-184.14864	300.89984	432.22058	112.90962	320.9911	361.40657	175.83559	410.08339	357.3191	68.32787	313.0167	265.82225	78.08057	313.9581	361.18565	77.92398	225.66786	144.5419	130.01985	174.18133	53.9104	102.64059	177.89123	57.03655	24.08693	118.66397	37.32383	79.78053	289.01664	29.66158	54.13813	218.38587	675.97421	31.16157	241.19076	672.82238	-127.37995	310.66242	361.08213	32.04231	314.56284	351.30395	-137.85339	288.59614	738.16917	-40.91795	172.40137	47.22204	64.20944	152.9042	47.49318	-171.30381	
125	1.24	133.47436	1122.33246	-61.78036	109.25297	924.02029	-78.25228	246.56434	1049.37619	-48.81131	304.30735	735.99533	-150.09085	272.89425	740.34533	68.21668	167.6338	771.44205	-61.99922	308.22635	417.9593	-213.99436	316.53445	354.53984	-277.27411	408.6979	348.12606	-182.63873	310.87829	258.95408	-186.17461	315.21532	352.3692	-183.83808	203.75949	135.77561	-238.26008	156.76268	61.88588	-207.36948	157.55734	49.06088	-133.48267	95.14021	39.56879	-185.14923	268.71575	29.49257	-184.15474	300.88593	432.23968	112.88871	320.97557	361.42932	175.8039	410.06566	357.32833	68.32415	313.03316	265.85416	78.07072	313.96189	361.19411	77.90604	225.6535	144.54281	130.0067	174.18557	53.90413	102.63964	177.89208	57.03541	24.0774	118.67854	37.32093	79.78266	289.0233	29.65865	54.13817	218.3975	675.97553	31.13875	241.20918	672.81663	-127.39257	310.67475	361.08387	32.02377	314.56613	351.30095	-137.85506	288.6008	738.17033	-40.93709	172.40365	47.21819	64.20455	152.91005	47.48603	-171.30549	
126	1.25	133.5007	1122.34319	-61.85406	109.29955	924.00536	-78.30075	246.57459	1049.36872	-48.87941	304.31968	735.99656	-150.10775	272.90478	740.35637	68.18672	167.65557	771.41679	-62.03857	308.25063	417.95217	-213.99737	316.55218	354.53839	-277.28761	408.70705	348.12595	-182.63404	310.88424	258.94612	-186.16763	315.22048	352.37158	-183.84193	203.78541	135.79011	-238.27026	156.765	61.87832	-207.36773	157.5558	49.04125	-133.48439	95.16194	39.58058	-185.15596	268.72041	29.49656	-184.16253	300.87696	432.26115	112.86243	320.96139	361.45205	175.77384	410.04799	357.33978	68.31664	313.03643	265.87536	78.05885	313.95821	361.20313	77.88622	225.64339	144.53965	129.99448	174.19114	53.89614	102.64209	177.89265	57.0297	24.07157	118.69175	37.31171	79.78689	289.02756	29.65181	54.14056	218.42621	675.975	31.11573	241.23931	672.80896	-127.40692	310.67563	361.08645	32.00364	314.56518	351.30533	-137.85896	288.61223	738.17647	-40.96051	172.40678	47.21108	64.20337	152.91047	47.47195	-171.30537	
127	1.26	133.53142	1122.36168	-61.92324	109.33313	923.9967	-78.35763	246.58402	1049.36494	-48.94679	304.33189	735.99967	-150.12724	272.91827	740.37045	68.15686	167.6842	771.38446	-62.07192	308.27006	417.94845	-214.0027	316.56284	354.53743	-277.30254	408.71607	348.12959	-182.62674	310.8873	258.9407	-186.16134	315.22127	352.37664	-183.84482	203.8061	135.79994	-238.28024	156.76745	61.86842	-207.36096	157.54527	49.01693	-133.48531	95.17787	39.59244	-185.15828	268.72045	29.4976	-184.16861	300.87003	432.28244	112.83695	320.94874	361.47134	175.75225	410.02864	357.35131	68.30767	313.0243	265.88365	78.04952	313.94467	361.21092	77.87037	225.63612	144.53399	129.9875	174.19635	53.88838	102.64947	177.89231	57.02169	24.07139	118.70154	37.29958	79.79601	289.02567	29.64049	54.14782	218.4629	675.97261	31.0945	241.27517	672.7986	-127.42128	310.66149	361.08884	31.98785	314.56119	351.31349	-137.86185	288.62508	738.18506	-40.98519	172.40967	47.20293	64.20749	152.90643	47.45417	-171.30229	
128	1.27	133.56405	1122.38163	-61.98712	109.35464	923.9901	-78.41896	246.59011	1049.36343	-49.01043	304.3399	736.00053	-150.14655	272.92748	740.38525	68.13012	167.71343	771.35077	-62.09863	308.28055	417.94359	-214.00768	316.56368	354.53346	-277.31546	408.72288	348.13291	-182.61558	310.8894	258.93735	-186.15407	315.21785	352.38052	-183.84472	203.81736	135.8011	-238.28658	156.76876	61.85728	-207.35039	157.52936	48.99249	-133.48336	95.17852	39.59913	-185.15171	268.71407	29.49633	-184.17032	300.86083	432.29972	112.81751	320.93818	361.48445	175.7428	410.0077	357.36101	68.29889	312.99797	265.87775	78.0462	313.92138	361.2153	77.86198	225.62912	144.52733	129.98789	174.19982	53.88256	102.66219	177.89011	57.01388	24.07723	118.70632	37.28756	79.8111	289.01682	29.62498	54.16123	218.49586	675.96974	31.07694	241.30732	672.78559	-127.43394	310.63223	361.08914	31.97989	314.55577	351.32138	-137.86168	288.63369	738.19289	-41.00822	172.41111	47.19592	64.21724	152.89908	47.43568	-171.29587	
